<?xml version="1.0" standalone="no"?>
<!DOCTYPE svg PUBLIC "-//W3C//DTD SVG 20010904//EN"
 "http://www.w3.org/TR/2001/REC-SVG-20010904/DTD/svg10.dtd">
<svg version="1.0" xmlns="http://www.w3.org/2000/svg"
 width="512.000000pt" height="512.000000pt" viewBox="0 0 512.000000 512.000000"
 preserveAspectRatio="xMidYMid meet">
<metadata>
Created by potrace 1.14, written by Peter Selinger 2001-2017
</metadata>
<g transform="translate(0.000000,512.000000) scale(0.100000,-0.100000)"
fill="#000000" stroke="none">
<path d="M1885 5108 c-352 -64 -635 -306 -745 -637 -79 -237 -60 -502 52 -725
43 -87 67 -122 144 -211 l52 -61 7 -118 c4 -65 8 -127 10 -137 4 -18 -5 -19
-146 -19 -151 0 -181 -6 -206 -39 -9 -12 -12 -118 -13 -394 l0 -377 24 -25
c25 -25 26 -25 221 -25 l195 0 1 -37 c1 -21 2 -60 4 -88 1 -27 5 -124 9 -215
4 -91 9 -192 11 -225 2 -33 6 -130 10 -215 3 -85 8 -184 10 -220 2 -36 6 -137
10 -225 9 -227 12 -258 40 -339 49 -142 190 -274 333 -310 45 -12 47 -14 59
-62 48 -191 209 -349 397 -389 74 -15 243 -17 311 -3 184 38 354 201 406 388
9 33 13 186 14 565 1 453 4 527 18 576 34 113 112 197 224 239 55 21 75 22
373 24 341 2 350 3 369 56 11 33 -9 84 -39 100 -14 8 -119 11 -336 11 -255 0
-326 -4 -377 -17 -187 -48 -343 -209 -386 -399 -8 -33 -12 -227 -14 -575 l-3
-525 -23 -60 c-30 -75 -109 -156 -188 -193 -54 -25 -67 -27 -193 -27 -129 0
-138 1 -193 29 -94 47 -175 141 -192 223 -6 29 -4 32 27 38 107 22 244 125
300 227 61 110 65 134 83 548 3 69 8 161 10 205 2 44 7 148 10 230 3 83 7 177
10 210 2 33 7 132 11 220 5 139 9 196 13 228 1 4 88 7 195 7 214 0 228 4 244
65 6 23 8 639 3 726 -1 18 -43 63 -60 65 -6 1 -78 2 -160 3 l-148 1 4 58 c9
113 10 128 11 174 2 39 8 53 38 85 315 331 348 846 79 1212 -145 197 -331 314
-600 378 -40 9 -271 10 -320 1z m320 -174 c253 -61 455 -229 552 -459 28 -65
62 -196 56 -212 -4 -10 -168 -13 -778 -13 l-774 0 5 25 c2 14 6 35 8 48 51
292 299 545 601 611 82 18 256 18 330 0z m606 -886 c-4 -18 -8 -35 -8 -38 -3
-25 -30 -106 -51 -155 -87 -200 -266 -361 -477 -428 -75 -24 -101 -28 -215
-34 -289 -13 -562 144 -708 408 -35 64 -66 152 -80 227 l-9 52 777 0 778 0 -7
-32z m-1064 -778 c10 0 23 -4 28 -9 18 -16 140 -34 247 -36 152 -3 307 30 430
91 26 13 51 24 55 24 8 0 6 -75 -3 -117 l-4 -23 -465 0 -465 0 -1 43 c0 23 -2
56 -3 73 l-2 31 82 -39 c45 -21 91 -38 101 -38z m1128 -501 l0 -261 -832 -2
-833 -1 0 263 0 262 833 0 832 0 0 -261z m-449 -501 c-3 -40 -8 -131 -11 -203
-3 -71 -7 -170 -10 -220 -2 -49 -7 -148 -10 -220 -3 -71 -8 -161 -10 -200 -2
-38 -7 -133 -10 -210 -3 -77 -8 -180 -10 -228 -7 -159 -49 -247 -149 -314
-165 -112 -383 -50 -471 133 -28 59 -33 93 -40 274 -3 74 -8 178 -10 230 -3
52 -7 145 -10 205 -2 61 -7 162 -10 225 -10 220 -14 306 -21 453 l-6 147 391
0 391 0 -4 -72z"/>
</g>
</svg>
